squats_1_grf
version=1
nRows=15
nColumns=19
inDegrees=no
endheader
time	ground_force_right_vx	ground_force_right_vy	ground_force_right_vz	ground_force_right_px	ground_force_right_py	ground_force_right_pz	ground_force_right_mx	ground_force_right_my	ground_force_right_mz	ground_force_left_vx	ground_force_left_vy	ground_force_left_vz	ground_force_left_px	ground_force_left_py	ground_force_left_pz	ground_force_left_mx	ground_force_left_my	ground_force_left_mz
     46.37200000	     -6.42226105	    431.37382375	     38.33298397	     -3.49812659	      0.00733118	      2.27626078	     -0.00878108	      3.01256444	      0.01364014	    -17.67781595	    367.58683443	    -31.51518331	     -3.46363945	      0.00810013	      2.74496773	      0.00974608	     -2.93335382	      0.00509370
     46.37300000	     -6.44710011	    430.90140644	     38.35446961	     -3.49810199	      0.00733133	      2.27624301	     -0.00876312	      3.00640202	      0.01361224	    -17.75590188	    367.40717533	    -31.57937382	     -3.46355969	      0.00810037	      2.74495534	      0.00970968	     -2.92239804	      0.00507468
     46.37400000	     -6.47098067	    430.41144501	     38.37352808	     -3.49807742	      0.00733148	      2.27622532	     -0.00874500	      3.00018827	      0.01358411	    -17.83206607	    367.22825308	    -31.65154020	     -3.46348092	      0.00810062	      2.74494499	      0.00967306	     -2.91137585	      0.00505554
     46.37500000	     -6.49451561	    429.90437743	     38.39006943	     -3.49805267	      0.00733163	      2.27620776	     -0.00872674	      2.99392130	      0.01355573	    -17.90638409	    367.05015750	    -31.73157627	     -3.46340316	      0.00810086	      2.74493665	      0.00963624	     -2.90029433	      0.00503630
     46.37600000	     -6.51835577	    429.38068925	     38.40400492	     -3.49802750	      0.00733178	      2.27619036	     -0.00870831	      2.98760037	      0.01352711	    -17.97891334	    366.87298705	    -31.81932828	     -3.46332642	      0.00810111	      2.74493025	      0.00959926	     -2.88916132	      0.00501697
     46.37700000	     -6.54318378	    428.84090326	     38.41524757	     -3.49800171	      0.00733194	      2.27617316	     -0.00868973	      2.98122586	      0.01349825	    -18.04968945	    366.69684235	    -31.91459562	     -3.46325073	      0.00810135	      2.74492576	      0.00956212	     -2.87798527	      0.00499756
     46.37800000	     -6.56970777	    428.28556885	     38.42371285	     -3.49797504	      0.00733209	      2.27615621	     -0.00867100	      2.97479915	      0.01346915	    -18.11872316	    366.52181947	    -32.01713190	     -3.46317614	      0.00810159	      2.74492309	      0.00952488	     -2.86677504	      0.00497809
     46.37900000	     -6.59865492	    427.71525163	     38.42931920	     -3.49794726	      0.00733225	      2.27613954	     -0.00865212	      2.96832258	      0.01343983	    -18.18599800	    366.34800343	    -32.12664621	     -3.46310268	      0.00810184	      2.74492219	      0.00948755	     -2.85553979	      0.00495858
     46.38000000	     -6.63076496	    427.13052344	     38.43198868	     -3.49791814	      0.00733241	      2.27612322	     -0.00863311	      2.96179939	      0.01341029	    -18.25146863	    366.17546180	    -32.24280484	     -3.46303044	      0.00810208	      2.74492297	      0.00945017	     -2.84428879	      0.00493905
     46.38100000	     -6.66678370	    426.53195317	     38.43164758	     -3.49788743	      0.00733257	      2.27610728	     -0.00861397	      2.95523364	      0.01338056	    -18.31506002	    366.00423879	    -32.36523315	     -3.46295947	      0.00810232	      2.74492536	      0.00941276	     -2.83303134	      0.00491950
     46.38200000	     -6.70745679	    425.92009859	     38.42822713	     -3.49785490	      0.00733273	      2.27609179	     -0.00859472	      2.94863022	      0.01335066	    -18.37666738	    365.83434985	    -32.49351786	     -3.46288987	      0.00810255	      2.74492927	      0.00937537	     -2.82177657	      0.00489995
     46.38300000	     -6.75352348	    425.29549962	     38.42166421	     -3.49782031	      0.00733290	      2.27607680	     -0.00857538	      2.94199480	      0.01332062	    -18.43615694	    365.66577700	    -32.62720962	     -3.46282171	      0.00810279	      2.74493461	      0.00933801	     -2.81053333	      0.00488043
     46.38400000	     -6.80571080	    424.65867306	     38.41190213	     -3.49778345	      0.00733307	      2.27606237	     -0.00855597	      2.93533386	      0.01329046	    -18.49336745	    365.49846490	    -32.76582580	     -3.46275510	      0.00810302	      2.74494129	      0.00930072	     -2.79931008	      0.00486094
     46.38500000	     -6.86472786	    424.01010916	     38.39889156	     -3.49774411	      0.00733325	      2.27604855	     -0.00853650	      2.92865466	      0.01326022	    -18.54811242	    365.33231791	    -32.90885361	     -3.46269012	      0.00810325	      2.74494922	      0.00926353	     -2.78811482	      0.00484150
     46.38600000	     -6.93126057	    423.35026997	     38.38259138	     -3.49770207	      0.00733343	      2.27603541	     -0.00851700	      2.92196527	      0.01322993	    -18.60018301	    365.16719802	    -33.05575348	     -3.46262689	      0.00810348	      2.74495831	      0.00922645	     -2.77695493	      0.00482212
